<svg width="60" height="60" viewBox="0 0 60 60" fill="none" xmlns="http://www.w3.org/2000/svg">
<circle cx="30" cy="30" r="30" fill="#FF5147"/>
<g clip-path="url(#clip0_660_4421)">
<path d="M30 19.3945C24.1521 19.3945 19.3945 24.1521 19.3945 30C19.3945 35.8479 24.1521 40.6055 30 40.6055C35.8479 40.6055 40.6055 35.8479 40.6055 30C40.6055 24.1521 35.8479 19.3945 30 19.3945ZM21.1523 29.1211H22.9102V30.8789H21.1523V29.1211ZM22.7772 35.1849L21.8983 33.6626L23.4206 32.7837L24.2995 34.306L22.7772 35.1849ZM23.4206 27.2161L21.8983 26.3372L22.7772 24.8149L24.2995 25.6938L23.4206 27.2161ZM26.3372 38.1017L24.8149 37.2228L25.6938 35.7005L27.2161 36.5794L26.3372 38.1017ZM25.694 24.2995L24.8151 22.7772L26.3374 21.8983L27.2163 23.4206L25.694 24.2995ZM30.8789 38.8477H29.1211V37.0898H30.8789V38.8477ZM33.6628 38.1017L32.7839 36.5794L34.3062 35.7005L35.1851 37.2228L33.6628 38.1017ZM37.2226 35.1849L29.1211 30.5074V21.1523H30.8789V29.4926L38.1015 33.6626L37.2226 35.1849Z" fill="white"/>
<path d="M40.6066 19.3934C37.7735 16.5603 34.0066 15 30 15C25.9934 15 22.2265 16.5603 19.3934 19.3934C16.5603 22.2265 15 25.9934 15 30C15 34.0066 16.5603 37.7735 19.3934 40.6066C22.2265 43.4397 25.9934 45 30 45C34.0066 45 37.7735 43.4397 40.6066 40.6066C43.4397 37.7735 45 34.0066 45 30C45 25.9934 43.4397 22.2265 40.6066 19.3934ZM30 42.3633C23.1828 42.3633 17.6367 36.8172 17.6367 30C17.6367 23.1828 23.1828 17.6367 30 17.6367C36.8172 17.6367 42.3633 23.1828 42.3633 30C42.3633 36.8172 36.8172 42.3633 30 42.3633Z" fill="white"/>
</g>
<defs>
<clipPath id="clip0_660_4421">
<rect width="30" height="30" fill="white" transform="translate(15 15)"/>
</clipPath>
</defs>
</svg>
