<svg width="70" height="70" viewBox="0 0 70 70" fill="none" xmlns="http://www.w3.org/2000/svg">
<path d="M41.0496 25.9698C40.9538 25.8707 40.84 25.7921 40.7148 25.7385C40.5896 25.6848 40.4553 25.6572 40.3198 25.6572C40.1842 25.6572 40.05 25.6848 39.9248 25.7385C39.7995 25.7921 39.6858 25.8707 39.59 25.9698L25.1384 40.9051C25.0398 41.0035 24.9611 41.1212 24.907 41.2513C24.8529 41.3815 24.8245 41.5215 24.8233 41.6631C24.8221 41.8048 24.8482 41.9453 24.9001 42.0764C24.952 42.2075 25.0287 42.3266 25.1256 42.4267C25.2225 42.5269 25.3378 42.6061 25.4646 42.6598C25.5915 42.7134 25.7274 42.7404 25.8645 42.7392C26.0015 42.7379 26.137 42.7085 26.2629 42.6526C26.3889 42.5967 26.5028 42.5154 26.598 42.4135L41.0496 27.4783C41.1455 27.3793 41.2215 27.2617 41.2734 27.1323C41.3254 27.0029 41.3521 26.8642 41.3521 26.7241C41.3521 26.584 41.3254 26.4453 41.2734 26.3158C41.2215 26.1864 41.1455 26.0689 41.0496 25.9698Z" fill="#FF5147"/>
<path d="M27.9327 33.1252C28.7494 33.1252 29.5477 32.875 30.2267 32.4061C30.9057 31.9372 31.4349 31.2708 31.7475 30.491C32.06 29.7113 32.1417 28.8533 31.9824 28.0255C31.8231 27.1978 31.4299 26.4374 30.8524 25.8407C30.2749 25.2439 29.5392 24.8375 28.7383 24.6728C27.9373 24.5082 27.1071 24.5927 26.3526 24.9156C25.5981 25.2386 24.9533 25.7856 24.4996 26.4873C24.0459 27.189 23.8037 28.0141 23.8037 28.858C23.8049 29.9894 24.2404 31.074 25.0144 31.874C25.7885 32.674 26.838 33.124 27.9327 33.1252ZM27.9327 26.7244C28.3411 26.7244 28.7402 26.8496 29.0797 27.084C29.4192 27.3184 29.6838 27.6517 29.8401 28.0415C29.9964 28.4314 30.0372 28.8604 29.9576 29.2743C29.8779 29.6882 29.6813 30.0683 29.3926 30.3667C29.1038 30.6651 28.736 30.8683 28.3355 30.9506C27.935 31.033 27.5199 30.9907 27.1427 30.8292C26.7654 30.6677 26.443 30.3943 26.2162 30.0434C25.9893 29.6925 25.8682 29.28 25.8682 28.858C25.8688 28.2923 26.0865 27.75 26.4735 27.35C26.8606 26.95 27.3854 26.725 27.9327 26.7244Z" fill="#FF5147"/>
<path d="M38.255 35.2588C37.4384 35.2588 36.6401 35.5091 35.961 35.9779C35.282 36.4468 34.7528 37.1133 34.4403 37.893C34.1278 38.6727 34.046 39.5307 34.2053 40.3585C34.3646 41.1862 34.7579 41.9466 35.3353 42.5434C35.9128 43.1402 36.6485 43.5466 37.4495 43.7112C38.2504 43.8759 39.0806 43.7914 39.8351 43.4684C40.5896 43.1454 41.2345 42.5985 41.6882 41.8967C42.1419 41.195 42.384 40.37 42.384 39.526C42.3828 38.3947 41.9474 37.31 41.1733 36.51C40.3992 35.71 39.3497 35.2601 38.255 35.2588ZM38.255 41.6596C37.8467 41.6596 37.4475 41.5345 37.108 41.3C36.7685 41.0656 36.5039 40.7324 36.3476 40.3425C36.1914 39.9526 36.1505 39.5236 36.2302 39.1098C36.3098 38.6959 36.5064 38.3157 36.7952 38.0173C37.0839 37.7189 37.4518 37.5157 37.8522 37.4334C38.2527 37.3511 38.6678 37.3933 39.0451 37.5548C39.4223 37.7163 39.7447 37.9898 39.9716 38.3406C40.1984 38.6915 40.3195 39.104 40.3195 39.526C40.319 40.0917 40.1013 40.6341 39.7142 41.0341C39.3272 41.4341 38.8024 41.659 38.255 41.6596Z" fill="#FF5147"/>
<path d="M62.2183 27.8113C61.3642 27.0592 60.7298 26.0761 60.3862 24.9722C60.0426 23.8683 60.0035 22.6872 60.2731 21.5616C60.5585 20.3845 60.5909 19.1571 60.3681 17.9657C60.1453 16.7742 59.6725 15.6477 58.9832 14.6654C58.2939 13.683 57.4047 12.8686 56.3781 12.2796C55.3516 11.6905 54.2126 11.341 53.0413 11.2556C51.9269 11.17 50.858 10.7635 49.9557 10.0822C49.0534 9.40093 48.3537 8.47211 47.936 7.40097C47.5024 6.27427 46.8342 5.26001 45.9788 4.43015C45.1234 3.60029 44.1017 2.97518 42.9863 2.59919C41.8709 2.22319 40.689 2.10551 39.5247 2.25452C38.3603 2.40353 37.242 2.81556 36.249 3.46137C35.3026 4.07268 34.2089 4.39674 33.0929 4.39657C31.9768 4.3964 30.8833 4.07201 29.937 3.46041C28.9441 2.81506 27.8258 2.40341 26.6617 2.25467C25.4975 2.10594 24.316 2.22375 23.2008 2.59976C22.0857 2.97578 21.0642 3.60077 20.209 4.43042C19.3537 5.26007 18.6855 6.27405 18.2519 7.40043C17.833 8.47338 17.1315 9.4035 16.2269 10.0852C15.3224 10.767 14.251 11.173 13.1345 11.2572C11.963 11.3444 10.8243 11.6958 9.79843 12.2867C8.77255 12.8776 7.88444 13.6937 7.1966 14.6776C6.50876 15.6614 6.03791 16.7891 5.81719 17.9812C5.59646 19.1734 5.63121 20.401 5.91901 21.5778C6.18555 22.7048 6.14297 23.8863 5.79602 24.9897C5.44908 26.093 4.81151 27.0747 3.95483 27.8245C3.05722 28.608 2.3361 29.5847 1.8419 30.6863C1.34771 31.7879 1.09237 32.9879 1.09376 34.2021C1.09514 35.4164 1.35322 36.6156 1.84993 37.7161C2.34664 38.8165 3.06999 39.7914 3.96938 40.5728C4.82337 41.3248 5.45772 42.308 5.80128 43.4118C6.14484 44.5157 6.18404 45.6966 5.91446 46.8222C5.62904 47.9993 5.59661 49.2267 5.81946 50.4181C6.04231 51.6096 6.51502 52.7361 7.20435 53.7184C7.89368 54.7008 8.78289 55.5151 9.80944 56.1042C10.836 56.6933 11.975 57.0428 13.1462 57.1281C14.2606 57.2138 15.3295 57.6203 16.2319 58.3016C17.1342 58.9828 17.8338 59.9117 18.2516 60.9828C18.6851 62.1095 19.3533 63.1238 20.2088 63.9536C21.0642 64.7835 22.0859 65.4086 23.2013 65.7846C24.3167 66.1606 25.4985 66.2783 26.6629 66.1293C27.8272 65.9803 28.9456 65.5682 29.9386 64.9224C30.8847 64.3112 31.978 63.9871 33.0938 63.9871C34.2095 63.9871 35.3028 64.3112 36.249 64.9224L36.8004 64.0206L36.2505 64.9234C37.2435 65.5687 38.3617 65.9804 39.5259 66.1291C40.69 66.2778 41.8716 66.16 42.9867 65.784C44.1019 65.408 45.1233 64.783 45.9786 63.9534C46.8339 63.1237 47.502 62.1097 47.9357 60.9834C48.3546 59.9104 49.0561 58.9803 49.9606 58.2986C50.8652 57.6168 51.9365 57.2108 53.0531 57.1265C54.2245 57.0394 55.3632 56.688 56.3891 56.0971C57.415 55.5061 58.3031 54.69 58.991 53.7062C59.6788 52.7224 60.1496 51.5947 60.3704 50.4025C60.5911 49.2104 60.5563 47.9827 60.2686 46.806C60.002 45.679 60.0446 44.4975 60.3915 43.3942C60.7385 42.2908 61.376 41.3092 62.2327 40.5594C63.1303 39.7759 63.8514 38.7992 64.3456 37.6975C64.8398 36.5959 65.0951 35.396 65.0937 34.1818C65.0924 32.9675 64.8343 31.7683 64.3376 30.6678C63.8409 29.5674 63.1177 28.5927 62.2183 27.8113ZM60.8876 38.941C59.7398 39.9511 58.8868 41.2715 58.4242 42.7544C57.9616 44.2373 57.9078 45.824 58.2687 47.3367C58.4814 48.2114 58.5061 49.1237 58.341 50.0093C58.176 50.8949 57.8251 51.7324 57.3132 52.4628C56.8012 53.1932 56.1406 53.7988 55.3778 54.237C54.6151 54.6752 53.7687 54.9354 52.8981 54.9991C51.3969 55.114 49.9568 55.6611 48.7411 56.5785C47.5254 57.496 46.5826 58.747 46.0197 60.1899C45.6985 61.0262 45.2031 61.7792 44.5686 62.3954C43.9341 63.0116 43.1762 63.4758 42.3485 63.7552C41.5209 64.0346 40.6439 64.1222 39.7798 64.0119C38.9157 63.9016 38.0857 63.596 37.3487 63.1169C36.0726 62.2923 34.5979 61.8551 33.0929 61.8552C31.5879 61.8553 30.1132 62.2927 28.8372 63.1174C28.1003 63.5964 27.2704 63.902 26.4064 64.0122C25.5424 64.1225 24.6655 64.0348 23.838 63.7553C23.0105 63.4759 22.2527 63.0116 21.6184 62.3954C20.9841 61.7792 20.4889 61.0262 20.1679 60.1899C19.6036 58.7455 18.6588 57.4936 17.4409 56.5761C16.2229 55.6586 14.7805 55.1122 13.2772 54.9991C12.4123 54.9373 11.5711 54.6801 10.8128 54.2456C10.0546 53.811 9.39798 53.2098 8.88922 52.4842C8.37172 51.7495 8.01691 50.906 7.84992 50.0137C7.68293 49.1215 7.70785 48.2021 7.92293 47.3209C8.28077 45.8069 8.22355 44.2198 7.75768 42.7375C7.29181 41.2552 6.4357 39.9362 5.28531 38.9285C4.61765 38.3453 4.08137 37.6183 3.71397 36.7985C3.34657 35.9787 3.15694 35.0859 3.15834 34.1824C3.15973 33.2789 3.35212 32.3867 3.72205 31.5681C4.09198 30.7495 4.63051 30.0244 5.29996 29.4433C6.44779 28.4333 7.30078 27.1128 7.76335 25.6299C8.22591 24.147 8.27977 22.5603 7.9189 21.0476C7.70614 20.1729 7.68143 19.2607 7.84651 18.375C8.01159 17.4894 8.36244 16.6519 8.87439 15.9215C9.38633 15.1911 10.0469 14.5855 10.8097 14.1473C11.5725 13.7091 12.4189 13.449 13.2894 13.3852C14.7907 13.2703 16.2308 12.7231 17.4466 11.8056C18.6623 10.888 19.605 9.63687 20.1679 8.19392C20.4883 7.35697 20.9834 6.60331 21.6178 5.98659C22.2521 5.36986 23.0102 4.90523 23.8382 4.62576C24.6661 4.34629 25.5434 4.25886 26.4077 4.36968C27.272 4.4805 28.1021 4.78685 28.8388 5.26693C30.1148 6.09183 31.5895 6.52926 33.0946 6.52926C34.5997 6.52926 36.0744 6.09183 37.3504 5.26693C38.0872 4.78786 38.9171 4.48233 39.7811 4.37204C40.645 4.26175 41.5219 4.34941 42.3494 4.62879C43.1769 4.90818 43.9347 5.37243 44.569 5.98858C45.2034 6.60473 45.6986 7.35767 46.0197 8.19392C46.584 9.63826 47.5287 10.8902 48.7467 11.8077C49.9647 12.7252 51.4071 13.2715 52.9103 13.3847C53.7752 13.4464 54.6165 13.7037 55.3747 14.1382C56.1329 14.5728 56.7896 15.174 57.2983 15.8995C57.8158 16.6343 58.1707 17.4778 58.3376 18.37C58.5046 19.2623 58.4797 20.1816 58.2646 21.0629C57.9067 22.577 57.964 24.1643 58.43 25.6467C58.8959 27.1291 59.7522 28.4481 60.9028 29.4558C61.5704 30.039 62.1067 30.766 62.4741 31.5858C62.8415 32.4056 63.0311 33.2985 63.0297 34.2019C63.0283 35.1054 62.8359 35.9976 62.466 36.8162C62.0961 37.6348 61.557 38.36 60.8876 38.941Z" fill="#FF5147"/>
<path d="M33.0934 12.856C29.0102 12.856 25.0186 14.1073 21.6236 16.4517C18.2285 18.7962 15.5823 22.1284 14.0198 26.0271C12.4572 29.9257 12.0483 34.2157 12.8449 38.3545C13.6415 42.4932 15.6078 46.295 18.4951 49.2789C21.3823 52.2628 25.061 54.2948 29.0657 55.1181C33.0705 55.9413 37.2215 55.5188 40.9939 53.9039C44.7663 52.2891 47.9907 49.5544 50.2592 46.0457C52.5277 42.537 53.7385 38.4119 53.7385 34.192C53.7322 28.5353 51.5551 23.1122 47.6847 19.1123C43.8144 15.1124 38.5669 12.8625 33.0934 12.856ZM33.0934 53.3944C29.4185 53.3944 25.8261 52.2682 22.7705 50.1582C19.715 48.0483 17.3335 45.0492 15.9271 41.5405C14.5208 38.0317 14.1528 34.1707 14.8698 30.4458C15.5867 26.7209 17.3564 23.2993 19.9549 20.6138C22.5534 17.9283 25.8642 16.0995 29.4685 15.3585C33.0728 14.6176 36.8087 14.9979 40.2039 16.4513C43.599 17.9046 46.5009 20.3659 48.5426 23.5237C50.5843 26.6815 51.674 30.3941 51.674 34.192C51.6685 39.2831 49.7092 44.164 46.2258 47.7639C42.7425 51.3639 38.0196 53.3888 33.0934 53.3944Z" fill="#FF5147"/>
</svg>
