<svg width="70" height="70" viewBox="0 0 70 70" fill="none" xmlns="http://www.w3.org/2000/svg">
<path d="M43.4766 4.82373H4V64.8237H52.8705V14.1336L43.4766 4.82373ZM44.1176 8.52572L49.1351 13.4984H44.1176V8.52572ZM50.6823 62.655H6.18828V6.99233H41.9294V15.667H50.6823V62.655Z" fill="#FF5147"/>
<path d="M61.2588 12.4858L56.5176 23.7629V64.1003H65.9999V23.7629L61.2588 12.4858ZM63.8116 61.9316H58.7057V56.8713H63.8116V61.9316ZM63.8116 54.7027H58.7057V27.9558H63.8116V54.7027ZM63.8116 25.787H58.7057V24.1967L61.2586 18.1243L63.8115 24.1967L63.8116 25.787Z" fill="#FF5147"/>
<path d="M46.6708 53.2573H28.4355V55.426H46.6708V53.2573Z" fill="#FF5147"/>
<path d="M43.5276 47.8905C42.9382 48.6376 42.6631 48.9199 42.1081 48.9199C41.5531 48.9199 41.278 48.6375 40.6886 47.8905C40.0686 47.1046 39.2194 46.0283 37.5453 46.0283C35.8725 46.0283 35.0245 47.1049 34.4052 47.8913C33.8172 48.6378 33.5428 48.9199 32.99 48.9199C32.4376 48.9199 32.1633 48.6378 31.5754 47.8914C30.956 47.1052 30.1081 46.0283 28.4355 46.0283V48.197C28.988 48.197 29.2623 48.4791 29.8502 49.2255C30.4693 50.0117 31.3173 51.0886 32.9896 51.0886C34.6624 51.0886 35.5104 50.012 36.1297 49.2257C36.7177 48.4791 36.9921 48.197 37.5449 48.197C38.1 48.197 38.375 48.4794 38.9644 49.2265C39.5844 50.0125 40.4336 51.0887 42.1077 51.0887C43.7819 51.0887 44.6311 50.0125 45.2511 49.2265C45.8405 48.4794 46.1156 48.197 46.6705 48.197V46.0283C44.9967 46.0284 44.1476 47.1047 43.5276 47.8905Z" fill="#FF5147"/>
<path d="M32.0826 57.5942H28.4355V59.763H32.0826V57.5942Z" fill="#FF5147"/>
<path d="M37.9176 57.5942H34.2705V59.763H37.9176V57.5942Z" fill="#FF5147"/>
<path d="M46.6705 57.5942H43.0234V59.763H46.6705V57.5942Z" fill="#FF5147"/>
<path d="M24.7885 10.6064H10.2002V12.7752H24.7885V10.6064Z" fill="#FF5147"/>
<path d="M29.8943 22.1729H10.2002V24.3416H29.8943V22.1729Z" fill="#FF5147"/>
<path d="M19.6826 46.0283H10.2002V48.197H19.6826V46.0283Z" fill="#FF5147"/>
<path d="M19.6826 51.8115H10.2002V53.9802H19.6826V51.8115Z" fill="#FF5147"/>
<path d="M46.6707 27.9565H10.2002V30.1253H46.6707V27.9565Z" fill="#FF5147"/>
<path d="M46.6707 33.7393H10.2002V35.908H46.6707V33.7393Z" fill="#FF5147"/>
<path d="M46.6702 39.5225H13.8467V41.6912H46.6702V39.5225Z" fill="#FF5147"/>
<path d="M13.8473 14.9443H10.2002V17.1131H13.8473V14.9443Z" fill="#FF5147"/>
<path d="M19.6823 14.9443H16.0352V17.1131H19.6823V14.9443Z" fill="#FF5147"/>
</svg>
