<svg width="60" height="60" viewBox="0 0 60 60" fill="none" xmlns="http://www.w3.org/2000/svg">
<g clip-path="url(#clip0_669_2175)">
<path d="M33.186 10.9158C27.0461 4.77606 17.0563 4.7762 10.9167 10.9158C7.94259 13.8899 6.30469 17.8442 6.30469 22.0504C6.30469 26.2564 7.94259 30.2107 10.9167 33.1848C13.9869 36.2551 18.0184 37.7895 22.0513 37.7895C26.0833 37.7895 30.1165 36.2543 33.186 33.1848C36.1601 30.2107 37.798 26.2564 37.798 22.0504C37.798 17.8442 36.1601 13.8898 33.186 10.9158ZM31.6989 31.6978C26.3794 37.0175 17.7234 37.0174 12.4038 31.6978C9.82679 29.1208 8.40759 25.6946 8.40759 22.0502C8.40759 18.4058 9.82679 14.9796 12.4038 12.4026C15.0637 9.74286 18.5575 8.4129 22.0513 8.4129C25.5452 8.4129 29.0392 9.74286 31.6989 12.4026C34.2759 14.9796 35.6951 18.4058 35.6951 22.0502C35.6951 25.6946 34.2759 29.1208 31.6989 31.6978Z" fill="#FF5147"/>
<path d="M22.0515 9.5979C21.4708 9.5979 21 10.0687 21 10.6494C21 11.23 21.4708 11.7008 22.0515 11.7008C27.7581 11.7008 32.4009 16.3435 32.4009 22.0502C32.4009 22.6309 32.8717 23.1017 33.4523 23.1017C34.033 23.1017 34.5038 22.6309 34.5038 22.0502C34.5038 15.1839 28.9177 9.5979 22.0515 9.5979Z" fill="#FF5147"/>
<path d="M57.921 47.8715L41.8434 31.794C43.3204 28.8008 44.1022 25.4857 44.1022 22.0502C44.1022 16.1604 41.8086 10.6232 37.6438 6.45841C33.4791 2.29361 27.9419 0 22.0521 0C16.1622 0 10.625 2.29361 6.46036 6.45827C2.29556 10.6231 0.00195312 16.1603 0.00195312 22.0501C0.00195312 27.9399 2.29556 33.4771 6.46036 37.6418C10.625 41.8066 16.1622 44.1002 22.0521 44.1002C25.4877 44.1002 28.8026 43.3185 31.7959 41.8416L47.8733 57.919C49.2153 59.261 50.9994 60 52.8973 60C54.7949 60 56.5792 59.261 57.9211 57.919C60.6911 55.1489 60.6911 50.6417 57.921 47.8715ZM9.24841 34.8539C5.82844 31.4339 3.94489 26.8868 3.94489 22.0502C3.94489 17.2136 5.82844 12.6666 9.24841 9.24646C12.6684 5.82648 17.2154 3.94294 22.0521 3.94294C26.8886 3.94294 31.4357 5.82648 34.8557 9.24646C38.2757 12.6664 40.1592 17.2136 40.1592 22.0501C40.1592 26.8867 38.2758 31.4338 34.8557 34.8538C31.4357 38.2737 26.8886 40.1573 22.0521 40.1573C17.2154 40.1573 12.6684 38.2739 9.24841 34.8539ZM55.1329 55.131C54.5357 55.7282 53.7417 56.0571 52.8972 56.0571C52.0526 56.0571 51.2586 55.7282 50.6614 55.131L35.2492 39.7188C36.0883 39.0894 36.8888 38.3969 37.6438 37.6419C38.3987 36.887 39.0912 36.0865 39.7206 35.2474L55.1328 50.6596C56.3656 51.8923 56.3656 53.8983 55.1329 55.131Z" fill="#FF5147"/>
</g>
<defs>
<clipPath id="clip0_669_2175">
<rect width="60" height="60" fill="white"/>
</clipPath>
</defs>
</svg>
