<svg width="60" height="60" viewBox="0 0 60 60" fill="none" xmlns="http://www.w3.org/2000/svg">
<circle cx="30" cy="30" r="30" fill="#FF5147"/>
<g clip-path="url(#clip0_820_978)">
<path d="M44.9951 28.2689C44.9696 28.026 44.8447 27.8044 44.65 27.657L42.2736 25.8569L43.1382 23.004C43.2091 22.7702 43.18 22.5175 43.0579 22.3059C42.9358 22.0944 42.7315 21.9429 42.4936 21.8873L39.5904 21.2095L39.2198 18.2515C39.1895 18.0091 39.0602 17.7901 38.8625 17.6466C38.665 17.503 38.4167 17.4475 38.1769 17.4936L35.2491 18.0552L33.7072 15.5037C33.5808 15.2947 33.3736 15.1473 33.1347 15.0965C32.8957 15.0457 32.6465 15.096 32.446 15.2357L29.9999 16.9395L27.5537 15.2357C27.3532 15.0962 27.1039 15.0458 26.865 15.0966C26.6261 15.1473 26.4189 15.2947 26.2926 15.5039L24.7509 18.0554L21.8231 17.4938C21.5832 17.4479 21.335 17.5032 21.1374 17.6468C20.9398 17.7904 20.8104 18.0093 20.7801 18.2517L20.4095 21.2097L17.5063 21.8875C17.2684 21.9431 17.0642 22.0946 16.9421 22.3061C16.82 22.5177 16.7909 22.7703 16.8617 23.004L17.7262 25.857L15.35 27.657C15.1553 27.8044 15.0303 28.0259 15.0049 28.2689C14.9793 28.5118 15.0554 28.7544 15.2153 28.9392L17.1653 31.1939L15.7266 33.8048C15.6087 34.0187 15.5846 34.2719 15.6601 34.5042C15.7356 34.7364 15.9039 34.9272 16.125 35.0309L18.8236 36.2975L18.5711 39.268C18.5504 39.5114 18.6313 39.7525 18.7949 39.934C18.9582 40.1155 19.1896 40.2212 19.4338 40.2261L22.4144 40.2856L23.3919 43.1018C23.4719 43.3325 23.644 43.5199 23.8671 43.6192C24.0903 43.7187 24.3446 43.7211 24.5697 43.6263L27.3169 42.4683L29.3554 44.6435C29.5224 44.8218 29.7558 44.9229 30 44.9229C30.2443 44.9229 30.4776 44.8218 30.6446 44.6435L32.6832 42.4683L35.4302 43.6263C35.6552 43.721 35.9096 43.7185 36.1327 43.6192C36.3558 43.5199 36.5279 43.3327 36.608 43.1019L37.5855 40.2856L40.5661 40.2261C40.8102 40.2213 41.0416 40.1155 41.205 39.934C41.3684 39.7525 41.4494 39.5114 41.4288 39.268L41.1763 36.2975L43.875 35.0309C44.0962 34.9272 44.2645 34.7364 44.3399 34.5042C44.4154 34.272 44.3914 34.0187 44.2734 33.8047L42.8345 31.1939L44.7848 28.9391C44.9445 28.7545 45.0206 28.5118 44.9951 28.2689ZM29.9999 38.4538C25.3384 38.4538 21.5461 34.6614 21.5461 30C21.5461 25.3386 25.3385 21.5462 29.9999 21.5462C34.6614 21.5462 38.4537 25.3386 38.4537 30C38.4537 34.6614 34.6614 38.4538 29.9999 38.4538Z" fill="white"/>
<path d="M29.9993 23.3131C26.3122 23.3131 23.3125 26.3128 23.3125 29.9999C23.3125 33.6871 26.3123 36.6868 29.9993 36.6868C33.6866 36.6868 36.6862 33.6871 36.6862 29.9999C36.6862 26.3128 33.6865 23.3131 29.9993 23.3131ZM33.4629 28.7322L29.6778 32.5173C29.5053 32.6898 29.2792 32.7761 29.0531 32.7761C28.8271 32.7761 28.6009 32.6898 28.4285 32.5173L26.5358 30.6247C26.1909 30.2797 26.1909 29.7203 26.5358 29.3753C26.8807 29.0303 27.4402 29.0302 27.7852 29.3753L29.0531 30.6431L32.2135 27.4828C32.5585 27.1378 33.1179 27.1377 33.463 27.4828C33.8079 27.8278 33.8079 28.3872 33.4629 28.7322Z" fill="white"/>
</g>
<defs>
<clipPath id="clip0_820_978">
<rect width="30" height="30" fill="white" transform="translate(15 15)"/>
</clipPath>
</defs>
</svg>
