<svg width="60" height="60" viewBox="0 0 60 60" fill="none" xmlns="http://www.w3.org/2000/svg">
<circle cx="30" cy="30" r="30" fill="#FF5147"/>
<g clip-path="url(#clip0_820_1439)">
<path d="M25.5682 26.5115C25.5682 25.9346 26.027 25.4651 26.5909 25.4651C27.1548 25.4651 27.6136 25.9346 27.6136 26.5115C27.6136 27.0884 27.1548 27.5579 26.5909 27.5579C26.027 27.5579 25.5682 27.0884 25.5682 26.5115ZM33.4091 32.4412C32.8452 32.4412 32.3864 32.9107 32.3864 33.4876C32.3864 34.0646 32.8452 34.5341 33.4091 34.5341C33.973 34.5341 34.4318 34.0646 34.4318 33.4876C34.4318 32.9107 33.973 32.4412 33.4091 32.4412ZM42.6327 32.9498C42.5806 33.1852 42.8785 33.7991 43.0756 34.2055C43.4557 34.9889 43.8866 35.8766 43.5167 36.6604C43.1417 37.4553 42.1851 37.6649 41.3407 37.8495C40.9135 37.9433 40.2682 38.0846 40.1287 38.2628C39.9873 38.4445 39.9955 39.123 40.0009 39.5719C40.0118 40.4516 40.0237 41.4492 39.3535 41.9971C38.6857 42.5427 37.74 42.31 36.9061 42.1053C36.4769 41.9999 35.8299 41.8398 35.6216 41.9434C35.4245 42.0404 35.1481 42.6483 34.965 43.0505C34.5992 43.8552 34.1847 44.7666 33.3372 44.9637C33.2305 44.9885 33.1255 45 33.0222 45C32.3305 45 31.7124 44.4827 31.112 43.9804C30.7452 43.6731 30.2424 43.2525 29.9997 43.2525C29.7573 43.2525 29.2544 43.6731 28.8876 43.9804C28.23 44.5305 27.4841 45.1559 26.6628 44.9634C25.8153 44.7663 25.4005 43.8545 25.0343 43.0505C24.8516 42.6483 24.5748 42.0404 24.3781 41.9431C24.1694 41.8388 23.5217 41.9996 23.0932 42.1049C22.259 42.3104 21.314 42.542 20.6458 41.9968C19.9752 41.4488 19.9872 40.4509 19.9984 39.5708C20.0039 39.1219 20.012 38.4438 19.8709 38.2625C19.7315 38.0839 19.0861 37.9426 18.659 37.8491C17.8142 37.6642 16.8576 37.4546 16.4826 36.6593C16.1131 35.8763 16.5443 34.9882 16.9241 34.2048C17.1215 33.7988 17.4194 33.1845 17.3673 32.9491C17.3202 32.7381 16.8068 32.3303 16.4673 32.0603C15.7797 31.5148 15 30.8953 15 29.9996C15 29.1038 15.7797 28.4847 16.4676 27.9385C16.8072 27.6688 17.3206 27.2611 17.3676 27.0497C17.4198 26.8143 17.1218 26.2 16.9248 25.7937C16.5447 25.0102 16.1138 24.1225 16.4836 23.3388C16.8586 22.5438 17.8152 22.3342 18.6597 22.1493C19.0868 22.0559 19.7322 21.9146 19.8712 21.7363C20.0131 21.5546 20.0049 20.8762 19.9994 20.4273C19.9885 19.5472 19.9766 18.5496 20.6468 18.0017C21.3147 17.4561 22.2603 17.6884 23.0942 17.8935C23.5234 17.9989 24.1705 18.1583 24.3787 18.0557C24.5758 17.9584 24.8523 17.3508 25.0353 16.9483C25.4011 16.1439 25.8157 15.2325 26.6632 15.0354C27.4834 14.845 28.2307 15.4679 28.888 16.0184C29.2551 16.3257 29.758 16.7463 30.0003 16.7463C30.2427 16.7463 30.7456 16.3257 31.1124 16.0187C31.7703 15.4679 32.5159 14.8436 33.3375 15.0354C34.1847 15.2325 34.5995 16.1443 34.9657 16.9486C35.1488 17.3508 35.4252 17.9588 35.6223 18.0561C35.8312 18.159 36.478 17.9992 36.9065 17.8939C37.7407 17.6888 38.686 17.4565 39.3542 18.002C40.0248 18.55 40.0128 19.5476 40.0016 20.428C39.9961 20.8769 39.988 21.5553 40.1291 21.7363C40.2685 21.9146 40.9139 22.0562 41.341 22.1497C42.1858 22.3345 43.1424 22.5438 43.5174 23.3391C43.8869 24.1225 43.4557 25.0106 43.0759 25.794C42.8785 26.2004 42.5806 26.8143 42.6327 27.0497C42.6798 27.2611 43.1932 27.6688 43.5327 27.9385C44.2203 28.4847 45 29.1038 45 29.9996C45 30.8953 44.2203 31.5144 43.5324 32.0607C43.1928 32.3306 42.6794 32.7381 42.6327 32.9498ZM26.5909 28.9532C27.9065 28.9532 28.9773 27.8579 28.9773 26.5115C28.9773 25.1651 27.9065 24.0699 26.5909 24.0699C25.2753 24.0699 24.2045 25.1651 24.2045 26.5115C24.2045 27.8579 25.2753 28.9532 26.5909 28.9532ZM35.2548 25.6095C35.521 25.3371 35.521 24.8955 35.2548 24.6231C34.9885 24.3506 34.5569 24.3506 34.2907 24.6231L24.7452 34.3897C24.479 34.6621 24.479 35.1037 24.7452 35.3761C24.8785 35.5125 25.0527 35.5805 25.2273 35.5805C25.4018 35.5805 25.576 35.5125 25.7093 35.3761L35.2548 25.6095ZM35.7955 33.4876C35.7955 32.1416 34.7247 31.046 33.4091 31.046C32.0935 31.046 31.0227 32.1416 31.0227 33.4876C31.0227 34.8337 32.0935 35.9293 33.4091 35.9293C34.7247 35.9293 35.7955 34.8337 35.7955 33.4876Z" fill="white"/>
</g>
<defs>
<clipPath id="clip0_820_1439">
<rect width="30" height="30" fill="white" transform="translate(15 15)"/>
</clipPath>
</defs>
</svg>
