<svg width="70" height="70" viewBox="0 0 70 70" fill="none" xmlns="http://www.w3.org/2000/svg">
<path d="M45.1772 33.7821H36.0948C35.7115 32.1942 34.4595 30.9424 32.8718 30.5589V18.4314C32.8718 17.8648 32.4126 17.4056 31.846 17.4056C31.2793 17.4056 30.8202 17.8648 30.8202 18.4314V30.5589C28.903 31.0219 27.4741 32.7505 27.4741 34.8079C27.4741 37.2184 29.4355 39.1795 31.846 39.1795C33.9032 39.1795 35.632 37.7508 36.0948 35.8336H45.1772C45.7438 35.8336 46.203 35.3743 46.203 34.8078C46.203 34.2413 45.7438 33.7821 45.1772 33.7821ZM31.8461 37.128C30.5666 37.128 29.5257 36.0873 29.5257 34.8079C29.5257 33.5285 30.5666 32.4878 31.8461 32.4878C33.1254 32.4878 34.1663 33.5285 34.1663 34.8079C34.1661 36.0872 33.1254 37.128 31.8461 37.128Z" fill="#FF5147"/>
<path d="M22.6086 31.6546H16.585C15.6422 31.6546 14.8753 32.4215 14.8753 33.3643V36.2517C14.8753 37.1945 15.6422 37.9613 16.585 37.9613H22.6086C23.5514 37.9613 24.3182 37.1945 24.3182 36.2517V33.3643C24.3182 32.4215 23.5514 31.6546 22.6086 31.6546ZM22.2666 35.9099H16.9269V33.7062H22.2666V35.9099Z" fill="#FF5147"/>
<path d="M62.7706 42.4334C63.3746 39.9747 63.6918 37.4184 63.6918 34.8079C63.6918 26.3017 60.3792 18.3044 54.3642 12.2894C48.3494 6.27447 40.3523 2.96204 31.8462 2.96204C23.3398 2.96204 15.3424 6.27461 9.3274 12.2896C3.31257 18.3044 0 26.3015 0 34.8079C0 43.3143 3.31257 51.3116 9.3274 57.3264C15.3424 63.3414 23.3396 66.6539 31.8462 66.6539C31.8466 66.6539 31.8467 66.6539 31.8471 66.6539C34.0866 66.6539 36.3239 66.4199 38.4959 65.9583C39.0502 65.8406 39.404 65.2958 39.286 64.7416C39.1684 64.1874 38.6232 63.8341 38.0695 63.9515C36.0372 64.3834 33.9437 64.6023 31.847 64.6023C31.8467 64.6023 31.8463 64.6023 31.846 64.6023C23.8875 64.6023 16.4054 61.5032 10.7781 55.8757C5.15076 50.2485 2.05161 42.7665 2.05161 34.8081C2.05161 26.8496 5.15076 19.3677 10.7783 13.7403C16.4056 8.11294 23.8877 5.01365 31.8462 5.01365C39.8043 5.01365 47.2864 8.11294 52.9138 13.7403C58.5413 19.3677 61.6404 26.8498 61.6404 34.8081C61.6404 37.1521 61.3665 39.4493 60.8449 41.664C59.6375 41.2914 58.3555 41.0904 57.0274 41.0904C56.7086 41.0904 56.3926 41.1025 56.0795 41.1252C56.6063 39.1062 56.8881 36.9896 56.8881 34.8079C56.8881 32.6035 56.6011 30.4158 56.0355 28.306C55.8889 27.7587 55.3259 27.4345 54.779 27.5809C54.2318 27.7276 53.9071 28.2902 54.0539 28.8375C54.4852 30.4466 54.7373 32.1055 54.8112 33.7821H52.8992C52.3326 33.7821 51.8733 34.2414 51.8733 34.8079C51.8733 35.3745 52.3326 35.8337 52.8992 35.8337H54.8139C54.7276 37.7909 54.394 39.6844 53.8461 41.4856C48.2258 42.9079 44.0545 48.0078 44.0545 54.0643C44.0545 54.1362 44.0561 54.2076 44.0572 54.2793C40.7884 56.337 36.9679 57.5944 32.8721 57.7754V55.861C32.8721 55.2945 32.413 54.8352 31.8463 54.8352C31.2796 54.8352 30.8205 55.2945 30.8205 55.861V57.7747C25.2534 57.529 20.1948 55.295 16.3388 51.766L17.6848 50.4202C18.0855 50.0196 18.0855 49.37 17.6849 48.9694C17.2842 48.569 16.6346 48.5689 16.2343 48.9693L14.8882 50.3153C11.1866 46.2707 8.91 40.9029 8.85818 35.0131H10.5147C11.0814 35.0131 11.5405 34.5539 11.5405 33.9873C11.5405 33.4208 11.0814 32.9615 10.5147 32.9615H8.92941C9.34818 27.7186 11.5331 22.9661 14.8879 19.3007L16.2342 20.6467C16.4346 20.847 16.697 20.947 16.9595 20.947C17.2221 20.947 17.4846 20.847 17.6849 20.6465C18.0855 20.246 18.0855 19.5964 17.6848 19.1959L16.3386 17.8501C20.1944 14.3212 25.2531 12.0874 30.8202 11.8415V13.7551C30.8202 14.3216 31.2793 14.7809 31.846 14.7809C32.4127 14.7809 32.8718 14.3216 32.8718 13.7551V11.843C36.5757 12.0079 40.191 13.0609 43.3855 14.9187C44.814 15.7493 46.1454 16.7332 47.3591 17.8441L46.0074 19.1961C45.6068 19.5967 45.6068 20.2462 46.0075 20.6467C46.208 20.847 46.4703 20.947 46.7328 20.947C46.9955 20.947 47.258 20.847 47.4583 20.6465L48.8093 19.2952C49.8707 20.4549 50.8169 21.7214 51.6236 23.0786C51.9131 23.5658 52.543 23.7257 53.0294 23.4363C53.5164 23.1467 53.6767 22.5173 53.3871 22.0304C51.2068 18.3624 48.105 15.2899 44.4168 13.1452C40.6151 10.9344 36.2682 9.76573 31.846 9.76573C18.0376 9.76573 6.80356 20.9995 6.80356 34.8078C6.80356 48.616 18.0376 59.85 31.846 59.85C36.3731 59.85 40.6222 58.641 44.2905 56.531C44.6026 58.1458 45.2147 59.6546 46.0666 60.9972C45.2336 61.4492 44.374 61.8652 43.4889 62.2415C42.9676 62.4631 42.7245 63.0652 42.946 63.5868C43.1673 64.1081 43.7695 64.3512 44.2913 64.1297C45.332 63.6874 46.3398 63.1934 47.3129 62.6531C49.6916 65.3406 53.1645 67.0381 57.027 67.0381C59.5701 67.0381 62.033 66.302 64.1492 64.9093C64.6224 64.5978 64.7537 63.9617 64.4424 63.4885C64.1308 63.0152 63.4946 62.884 63.0214 63.1955C61.2409 64.367 59.168 64.9865 57.027 64.9865C51.005 64.9865 46.1057 60.0868 46.1057 54.0641C46.1057 48.0415 51.0049 43.1419 57.027 43.1419C63.0491 43.1419 67.9485 48.0417 67.9485 54.0641C67.9485 55.9812 67.445 57.8667 66.4925 59.5165C66.2092 60.0071 66.3773 60.6345 66.8679 60.9178C67.3586 61.201 67.9859 61.0329 68.2691 60.5423C69.4014 58.5808 70 56.3408 70 54.0641C70.0003 48.9718 67.0507 44.5559 62.7706 42.4334Z" fill="#FF5147"/>
<path d="M64.2827 49.1231C63.6854 48.5402 62.8975 48.2194 62.0636 48.2194C61.2009 48.2194 60.394 48.5592 59.7913 49.1767L55.4989 53.5741L53.7657 51.8056C53.1635 51.1911 52.3579 50.8526 51.4975 50.8526C50.6612 50.8526 49.8715 51.1751 49.2743 51.7608C48.0236 52.9865 48.0035 55.0013 49.2294 56.2522L52.7335 59.8275C53.4582 60.5673 54.4676 60.9915 55.5029 60.9915H55.5053C55.5056 60.9915 55.5059 60.9915 55.5063 60.9915C56.5418 60.9906 57.5517 60.5644 58.277 59.822L64.3373 53.6146C65.5602 52.361 65.5357 50.3462 64.2827 49.1231ZM62.8688 52.1816L56.8091 58.3887C56.4671 58.7387 55.9916 58.9397 55.5041 58.9401H55.5026C55.0153 58.9401 54.54 58.7402 54.1986 58.3917L50.6943 54.8162C50.2604 54.3734 50.2675 53.66 50.7103 53.2257C50.9218 53.0183 51.2013 52.9042 51.4973 52.9042C51.8019 52.9042 52.0871 53.024 52.3002 53.2416L54.7675 55.759C54.9605 55.9559 55.2244 56.0668 55.5 56.0668C55.5003 56.0668 55.5007 56.0668 55.5011 56.0668C55.7771 56.0665 56.0413 55.9551 56.234 55.7575L61.2589 50.6096C61.4723 50.3911 61.7576 50.2708 62.0631 50.2708C62.3584 50.2708 62.6374 50.3844 62.8489 50.591C63.2931 51.0244 63.3018 51.7378 62.8688 52.1816Z" fill="#FF5147"/>
</svg>
